<svg xmlns="http://www.w3.org/2000/svg" viewBox="0 0 400 300">
  <defs>
    <linearGradient id="bg2" x1="0%" y1="0%" x2="100%" y2="100%">
      <stop offset="0%" style="stop-color:#0f0f23"/>
      <stop offset="100%" style="stop-color:#1a1a3e"/>
    </linearGradient>
    <linearGradient id="ps5white" x1="0%" y1="0%" x2="100%" y2="100%">
      <stop offset="0%" style="stop-color:#ffffff"/>
      <stop offset="100%" style="stop-color:#e0e0e0"/>
    </linearGradient>
    <linearGradient id="ps5blue" x1="0%" y1="0%" x2="100%" y2="100%">
      <stop offset="0%" style="stop-color:#0070d1"/>
      <stop offset="100%" style="stop-color:#00439c"/>
    </linearGradient>
  </defs>
  <rect width="400" height="300" fill="url(#bg2)"/>
  <!-- PS5 Console -->
  <path d="M 170 50 Q 150 100 160 200 L 180 210 L 180 50 Z" fill="url(#ps5white)"/>
  <path d="M 230 50 Q 250 100 240 200 L 220 210 L 220 50 Z" fill="url(#ps5white)"/>
  <rect x="175" y="50" width="50" height="160" fill="#1a1a1a"/>
  <!-- Blue accent -->
  <rect x="175" y="55" width="50" height="3" fill="url(#ps5blue)"/>
  <!-- Controller hint -->
  <ellipse cx="300" cy="150" rx="40" ry="25" fill="#2a2a2a"/>
  <ellipse cx="300" cy="150" rx="35" ry="20" fill="url(#ps5white)" opacity="0.9"/>
  <!-- Game discs -->
  <rect x="60" y="120" width="60" height="80" rx="3" fill="#2563eb" transform="rotate(-10 90 160)"/>
  <rect x="70" y="130" width="60" height="80" rx="3" fill="#dc2626" transform="rotate(-5 100 170)"/>
  <rect x="80" y="140" width="60" height="80" rx="3" fill="#16a34a"/>
  <!-- Glow -->
  <ellipse cx="200" cy="250" rx="100" ry="15" fill="#0070d1" opacity="0.3"/>
  <!-- Text -->
  <text x="200" y="250" font-family="Arial, sans-serif" font-size="16" font-weight="bold" fill="white" text-anchor="middle">PlayStation 5</text>
  <text x="200" y="270" font-family="Arial, sans-serif" font-size="12" fill="#888" text-anchor="middle">+ 3 Jogos à sua escolha</text>
</svg>
